<svg xmlns="http://www.w3.org/2000/svg" version="1.1" xmlns:xlink="http://www.w3.org/1999/xlink" xmlns:svgjs="http://svgjs.dev/svgjs" viewBox="0 0 5.718781380428308 6.724032970832554"><g transform="matrix(1,0,0,1,0.5164170574016542,4.791615913430899)"><rect width="6.724032970832554" height="6.724032970832554" x="-1.0190428526037771" y="-4.7916159134309" fill="#ffffff"></rect><g><path d=" M 0.0735 1.314 Q 0.054 1.314 0.039 1.305 Q 0.024 1.296 0.024 1.272 Q 0.024 1.266 0.027 1.25025 Q 0.03 1.2345 0.0405 1.1835 L 0.0495 1.1835 Q 0.075 1.1895 0.09 1.19325 Q 0.105 1.197 0.1245 1.197 Q 0.156 1.197 0.1785 1.18275 Q 0.201 1.1685 0.213 1.1219999999999999 Q 0.225 1.0755 0.225 0.978 L 0.225 0.14849999999999997 L 0.10350000000000001 0.08850000000000002 L 0.10350000000000001 0.0645 L 0.504 0.0645 L 0.504 0.08850000000000002 L 0.381 0.14849999999999997 L 0.381 0.6930000000000001 Q 0.381 0.8625 0.34725 0.996 Q 0.3135 1.1295 0.249 1.2 Q 0.20700000000000002 1.2465 0.18 1.2705 Q 0.153 1.2945 0.129 1.30425 Q 0.105 1.314 0.0735 1.314 M 0.8070703125 1.0695 Q 0.7350703125 1.0695 0.6878203125 1.02675 Q 0.6405703125 0.984 0.6405703125 0.909 Q 0.6405703125 0.8355 0.6938203125 0.78225 Q 0.7470703125 0.729 0.8790703125 0.6975 L 1.0215703125 0.6645 L 1.0215703125 0.5595 Q 1.0215703125 0.5055 0.9818203125 0.46950000000000003 Q 0.9420703125000001 0.4335 0.8895703125000001 0.4335 Q 0.8340703125 0.4335 0.8123203125 0.46199999999999997 Q 0.7905703125 0.49049999999999994 0.7905703125 0.54 L 0.7905703125 0.588 L 0.7830703125 0.5954999999999999 L 0.7005703125 0.5954999999999999 Q 0.6780703125 0.5954999999999999 0.6698203125 0.58725 Q 0.6615703125 0.579 0.6615703125 0.5519999999999999 Q 0.6615703125 0.519 0.6818203125 0.48524999999999996 Q 0.7020703125000001 0.4515 0.7440703125 0.42599999999999993 Q 0.7890703125 0.39749999999999996 0.8355703125 0.38025 Q 0.8820703125 0.363 0.9345703125 0.363 Q 0.9915703124999999 0.363 1.0448203125 0.37875000000000003 Q 1.0980703125 0.39449999999999996 1.1310703125 0.43199999999999994 Q 1.1640703125 0.46950000000000003 1.1640703125 0.5325 L 1.1640703125 0.951 Q 1.1745703125 0.9615 1.1933203125 0.969 Q 1.2120703125 0.9765 1.2450703125 0.9765 L 1.2975703125 0.9765 L 1.3035703125 0.9795 L 1.3035703125 0.9884999999999999 Q 1.2855703125 1.02 1.2488203125 1.04475 Q 1.2120703125 1.0695 1.1595703125 1.0695 Q 1.1085703125 1.0695 1.0770703125 1.04475 Q 1.0455703125 1.02 1.0320703125000001 0.9765 L 1.0215703125 0.9765 Q 0.9825703125 1.0155 0.9263203125 1.0425 Q 0.8700703125 1.0695 0.8070703125 1.0695 M 0.7770703125 0.876 Q 0.7770703125 0.969 0.8865703125 0.969 Q 0.9195703125000001 0.969 0.9503203125 0.96225 Q 0.9810703125 0.9555 1.0215703125 0.939 L 1.0215703125 0.717 Q 0.9135703125000001 0.738 0.8610703125000001 0.762 Q 0.8085703125 0.786 0.7928203125 0.81375 Q 0.7770703125 0.8415 0.7770703125 0.876 M 1.4505205078125 1.416 Q 1.4160205078125 1.416 1.4077705078125 1.40625 Q 1.3995205078125 1.3965 1.3995205078125 1.3725 L 1.3995205078125 1.2915 L 1.4055205078125 1.284 L 1.4745205078125 1.284 Q 1.5120205078125 1.284 1.5330205078125 1.278 Q 1.5540205078125 1.272 1.5720205078125 1.24575 Q 1.5900205078125 1.2195 1.6170205078125 1.158 L 1.6665205078125 1.0455 L 1.3860205078125 0.44699999999999995 L 1.2870205078125 0.402 L 1.2870205078125 0.378 L 1.6590205078125 0.378 L 1.6590205078125 0.402 L 1.5420205078125 0.44699999999999995 L 1.5420205078125 0.4545 L 1.7340205078125002 0.8685 L 1.7400205078125 0.8685 L 1.8975205078125001 0.46199999999999997 L 1.8975205078125001 0.4545 L 1.7910205078125 0.402 L 1.7910205078125 0.378 L 2.0835205078125 0.378 L 2.0835205078125 0.402 L 1.9725205078124999 0.4515 L 1.6755205078125002 1.173 Q 1.6620205078125 1.2075 1.6522705078125 1.23075 Q 1.6425205078125 1.254 1.6305205078125 1.27575 Q 1.6185205078125 1.2974999999999999 1.5960205078125 1.329 Q 1.5660205078125 1.3725 1.5270205078125 1.39425 Q 1.4880205078125 1.416 1.4505205078125 1.416 M 2.2920263671875 1.0695 Q 2.2200263671875 1.0695 2.1727763671875 1.02675 Q 2.1255263671874998 0.984 2.1255263671874998 0.909 Q 2.1255263671874998 0.8355 2.1787763671875 0.78225 Q 2.2320263671875 0.729 2.3640263671875 0.6975 L 2.5065263671875 0.6645 L 2.5065263671875 0.5595 Q 2.5065263671875 0.5055 2.4667763671875 0.46950000000000003 Q 2.4270263671875 0.4335 2.3745263671875 0.4335 Q 2.3190263671875 0.4335 2.2972763671875 0.46199999999999997 Q 2.2755263671875 0.49049999999999994 2.2755263671875 0.54 L 2.2755263671875 0.588 L 2.2680263671875 0.5954999999999999 L 2.1855263671875 0.5954999999999999 Q 2.1630263671875 0.5954999999999999 2.1547763671875 0.58725 Q 2.1465263671875 0.579 2.1465263671875 0.5519999999999999 Q 2.1465263671875 0.519 2.1667763671875 0.48524999999999996 Q 2.1870263671875 0.4515 2.2290263671875 0.42599999999999993 Q 2.2740263671875 0.39749999999999996 2.3205263671875 0.38025 Q 2.3670263671875 0.363 2.4195263671875 0.363 Q 2.4765263671874997 0.363 2.5297763671875 0.37875000000000003 Q 2.5830263671875 0.39449999999999996 2.6160263671874997 0.43199999999999994 Q 2.6490263671875 0.46950000000000003 2.6490263671875 0.5325 L 2.6490263671875 0.951 Q 2.6595263671875 0.9615 2.6782763671875 0.969 Q 2.6970263671875 0.9765 2.7300263671875 0.9765 L 2.7825263671875 0.9765 L 2.7885263671875 0.9795 L 2.7885263671875 0.9884999999999999 Q 2.7705263671875 1.02 2.7337763671874997 1.04475 Q 2.6970263671875 1.0695 2.6445263671875 1.0695 Q 2.5935263671874997 1.0695 2.5620263671875 1.04475 Q 2.5305263671875 1.02 2.5170263671875 0.9765 L 2.5065263671875 0.9765 Q 2.4675263671875 1.0155 2.4112763671875 1.0425 Q 2.3550263671875 1.0695 2.2920263671875 1.0695 M 2.2620263671875 0.876 Q 2.2620263671875 0.969 2.3715263671874998 0.969 Q 2.4045263671875 0.969 2.4352763671875 0.96225 Q 2.4660263671875 0.9555 2.5065263671875 0.939 L 2.5065263671875 0.717 Q 2.3985263671875 0.738 2.3460263671875 0.762 Q 2.2935263671875 0.786 2.2777763671874998 0.81375 Q 2.2620263671875 0.8415 2.2620263671875 0.876 M 2.8875190429687496 1.0545 L 2.8875190429687496 1.0305 L 2.9835190429687497 0.9824999999999999 L 2.9835190429687497 0.5355 L 2.89201904296875 0.45899999999999996 L 2.89201904296875 0.44699999999999995 L 3.0990190429687496 0.363 L 3.1110190429687496 0.363 L 3.1245190429687497 0.492 L 3.1305190429687495 0.492 Q 3.1650190429687495 0.43499999999999994 3.1935190429687497 0.40725 Q 3.22201904296875 0.37949999999999995 3.2475190429687495 0.37124999999999997 Q 3.2730190429687496 0.363 3.3000190429687497 0.363 Q 3.3135190429687498 0.363 3.3292690429687495 0.36675 Q 3.3450190429687496 0.37049999999999994 3.3555190429687496 0.375 Q 3.3735190429687494 0.38249999999999995 3.38701904296875 0.393 Q 3.4005190429687495 0.40349999999999997 3.4005190429687495 0.4169999999999999 Q 3.4005190429687495 0.4305 3.3945190429687497 0.44399999999999995 L 3.36301904296875 0.5235 L 3.3525190429687495 0.5235 L 3.3000190429687497 0.5025 Q 3.2820190429687495 0.49649999999999994 3.2655190429687497 0.49424999999999997 Q 3.2490190429687495 0.492 3.23251904296875 0.492 Q 3.1680190429687496 0.492 3.1260190429687498 0.5535 L 3.1260190429687498 0.9824999999999999 L 3.2355190429687495 1.0305 L 3.2355190429687495 1.0545 L 2.8875190429687496 1.0545 M 3.6839648437499997 1.0695 Q 3.6119648437499996 1.0695 3.5647148437499996 1.02675 Q 3.5174648437499996 0.984 3.5174648437499996 0.909 Q 3.5174648437499996 0.8355 3.57071484375 0.78225 Q 3.6239648437499996 0.729 3.7559648437499997 0.6975 L 3.89846484375 0.6645 L 3.89846484375 0.5595 Q 3.89846484375 0.5055 3.8587148437499996 0.46950000000000003 Q 3.81896484375 0.4335 3.7664648437499997 0.4335 Q 3.71096484375 0.4335 3.68921484375 0.46199999999999997 Q 3.66746484375 0.49049999999999994 3.66746484375 0.54 L 3.66746484375 0.588 L 3.6599648437499996 0.5954999999999999 L 3.5774648437499996 0.5954999999999999 Q 3.5549648437499997 0.5954999999999999 3.54671484375 0.58725 Q 3.53846484375 0.579 3.53846484375 0.5519999999999999 Q 3.53846484375 0.519 3.55871484375 0.48524999999999996 Q 3.5789648437499997 0.4515 3.62096484375 0.42599999999999993 Q 3.66596484375 0.39749999999999996 3.71246484375 0.38025 Q 3.75896484375 0.363 3.8114648437499996 0.363 Q 3.8684648437499995 0.363 3.92171484375 0.37875000000000003 Q 3.9749648437499996 0.39449999999999996 4.00796484375 0.43199999999999994 Q 4.040964843749999 0.46950000000000003 4.040964843749999 0.5325 L 4.040964843749999 0.951 Q 4.05146484375 0.9615 4.07021484375 0.969 Q 4.0889648437499995 0.9765 4.12196484375 0.9765 L 4.17446484375 0.9765 L 4.180464843749999 0.9795 L 4.180464843749999 0.9884999999999999 Q 4.16246484375 1.02 4.12571484375 1.04475 Q 4.0889648437499995 1.0695 4.03646484375 1.0695 Q 3.98546484375 1.0695 3.9539648437499997 1.04475 Q 3.92246484375 1.02 3.9089648437499998 0.9765 L 3.89846484375 0.9765 Q 3.8594648437499997 1.0155 3.8032148437499997 1.0425 Q 3.74696484375 1.0695 3.6839648437499997 1.0695 M 3.65396484375 0.876 Q 3.65396484375 0.969 3.7634648437499996 0.969 Q 3.79646484375 0.969 3.8272148437499998 0.96225 Q 3.8579648437499996 0.9555 3.89846484375 0.939 L 3.89846484375 0.717 Q 3.7904648437499997 0.738 3.73796484375 0.762 Q 3.6854648437499997 0.786 3.6697148437499996 0.81375 Q 3.65396484375 0.8415 3.65396484375 0.876 M 4.44445751953125 0.18899999999999995 Q 4.40245751953125 0.18899999999999995 4.37620751953125 0.16199999999999992 Q 4.34995751953125 0.135 4.34995751953125 0.09450000000000003 Q 4.34995751953125 0.05249999999999999 4.37620751953125 0.026249999999999885 Q 4.40245751953125 0 4.44445751953125 0 Q 4.48495751953125 0 4.51195751953125 0.026249999999999885 Q 4.53895751953125 0.05249999999999999 4.53895751953125 0.09450000000000003 Q 4.53895751953125 0.135 4.51195751953125 0.16199999999999992 Q 4.48495751953125 0.18899999999999995 4.44445751953125 0.18899999999999995 M 4.28395751953125 1.3995 L 4.28395751953125 1.374 Q 4.31995751953125 1.3425 4.3402075195312495 1.30575 Q 4.36045751953125 1.269 4.36945751953125 1.21725 Q 4.37845751953125 1.1655 4.37845751953125 1.086 L 4.37845751953125 0.534 L 4.28695751953125 0.4575 L 4.28695751953125 0.4455 L 4.50745751953125 0.363 L 4.51945751953125 0.363 L 4.51945751953125 1.0455 Q 4.51945751953125 1.1655 4.46995751953125 1.25025 Q 4.42045751953125 1.335 4.28395751953125 1.3995" fill="#404040" fill-rule="nonzero"></path></g><g></g><g clip-path="url(&quot;#SvgjsClipPath1002&quot;)"><g clip-path="url(&quot;#SvgjsClipPath1000ec73176c-6acf-4d36-b96e-24b07e138024&quot;)"><path d=" M 1.815426789955268 -4.204920542774313 C 1.9890227721959584 -4.252512949231076 2.168306971361821 -4.276165819365417 2.348306175163742 -4.275223039894784 C 2.3423043690781675 -4.2719768505666655 2.3358409057785914 -4.269668762095018 2.329140461724466 -4.268379005947384 C 2.2725139405660264 -4.2540621575485815 2.2156697646177403 -4.24134144427532 2.1592004385853008 -4.226915768481595 C 1.9553304520955943 -4.17606919118686 1.7549187583778953 -4.108293908015164 1.5680742132273051 -4.01144961846617 C 1.2936840748272807 -3.8710139112839945 1.0493665732244026 -3.668038727819212 0.8714942421886024 -3.4153173329416995 C 0.7194200538328666 -3.200848794133824 0.616606895429445 -2.9554308946951013 0.5704051162340535 -2.6966091249352497 C 0.5261421401712584 -2.4475062869240753 0.532950560809279 -2.192007446703211 0.5904172649671764 -1.9456154564348838 C 0.6812397719970811 -1.548697763283955 0.8971291396594314 -1.1841259902907986 1.1918458170445811 -0.9044154014722983 C 1.3410209337547558 -0.7626754102880562 1.5088414562538255 -0.6419562649220758 1.6906622276420522 -0.5455993884773069 C 1.9195304266228363 -0.42216098072681474 2.1694821948715606 -0.3426538024633037 2.4276050702645446 -0.3111851798124503 C 2.6028655438221846 -0.2908102730962505 2.782128447126448 -0.2953931156157994 2.9538459843826956 -0.33792044316528447 C 2.842647413004086 -0.3042723491005508 2.7286808987499724 -0.28056372081569103 2.6132887898692885 -0.26707380907019473 C 2.4874019111007923 -0.25683107288205065 2.3607205481446534 -0.2628132032000119 2.2363590615859423 -0.28487313410654247 C 1.9419084067217174 -0.3353932292165114 1.661508577735371 -0.45611908598479056 1.4148815169735636 -0.6235923548390288 C 1.0664887500256732 -0.8598929050158861 0.7814577107886997 -1.1929289173468187 0.6165116558832375 -1.58143062529034 C 0.4690989034932018 -1.9249866191305274 0.4173091554424652 -2.3106346309405046 0.47925612701937875 -2.6799827173775217 C 0.5206720577445604 -2.9293611062523373 0.6119249085857106 -3.167834181277159 0.7475640232364673 -3.381157622868541 C 0.9268639094989733 -3.6604838988031063 1.1733454646980817 -3.8903897804046483 1.4644584413275252 -4.049841505008565 C 1.576271749107513 -4.112534579947556 1.6937893752824489 -4.164460972908574 1.815426789955269 -4.204920542774313 Z" fill="#4e888f" transform="matrix(1,0,0,1,0,0)" fill-rule="nonzero"></path></g><g clip-path="url(&quot;#SvgjsClipPath1000ec73176c-6acf-4d36-b96e-24b07e138024&quot;)"><path d=" M 2.7500001817585273 -4.23383235402561 C 2.858621431003417 -4.21245349902123 2.96508557174467 -4.181290498804259 3.0680905651866546 -4.140724471702317 C 3.0872562786259303 -4.129998927335984 3.1092031366021358 -4.118426947675802 3.1169298816416915 -4.0964196300357525 C 3.122250332060166 -4.078475201806171 3.110037479963213 -4.0624292070213635 3.096990284505184 -4.05189713357934 C 3.0685182275312757 -4.032109991265367 3.0368911228413116 -4.017304335663252 3.0034591845349654 -4.008112245021853 C 2.917107364945984 -3.98400935686879 2.829279792170014 -3.9655463401672195 2.740532198400198 -3.9528400203335714 C 2.5802294456781305 -3.9272655825265863 2.4192979124520626 -3.904472289256533 2.260482467460614 -3.8705423259059932 C 2.014121429219731 -3.8187404859224867 1.7706624548434693 -3.7392843956956865 1.5543135937358885 -3.608147384813071 C 1.3070698444028492 -3.4604202421710335 1.1001285069897513 -3.2429710151814484 0.9751100140883823 -2.9827163461886874 C 0.8708002485720041 -2.7657597867212234 0.8198091191745841 -2.5270300974952224 0.8263792410264961 -2.286390305738137 C 0.8335247550618915 -2.0352100979094545 0.8950775349585308 -1.78856992409305 1.0067908779438384 -1.5634861970607674 C 1.2408906963566957 -1.0840410627596375 1.6758012422686341 -0.7113314190127702 2.1794665179065795 -0.5392269399079064 C 2.3699486466747075 -0.4731835667560462 2.569338666394698 -0.4363852696208168 2.770846673852734 -0.4300851547325699 C 3.032407271584572 -0.42333785624732556 3.3024443141876625 -0.47233436782836424 3.528696468233268 -0.6089611161882194 C 3.4434860305924486 -0.5496510725386479 3.353108880473004 -0.49813302126601 3.2586594256301744 -0.4550308120355524 C 3.1738751413017496 -0.4197996620696487 3.0853871819438634 -0.39424503708891345 2.9948739122687913 -0.37885163558922086 C 2.752684590833302 -0.33679589341773886 2.5027322485599486 -0.3557439520671668 2.264763011660932 -0.4141117115443822 C 2.0176796703727273 -0.476399041362229 1.7832843809183359 -0.58110569606142 1.5720161833100854 -0.7235684549752586 C 1.2620212747487507 -0.9318213902161752 1.012726614018963 -1.218477707239233 0.8494990164813213 -1.5543688797527375 C 0.7364778262086836 -1.7876588234987776 0.6729727396782195 -2.0418191484175217 0.6629809535155011 -2.3008522573301726 C 0.6569536742200464 -2.4763461533566096 0.6777909711061909 -2.6517301336057537 0.7247707299664128 -2.8209262857359985 C 0.7883497299958877 -3.048624018295534 0.9003321011222716 -3.259913923477532 1.053066704651795 -3.440359725706835 C 1.1783517390655256 -3.5874810195072664 1.3270669576912275 -3.7129084154360865 1.4932130574528235 -3.8115820617230867 C 1.6636488846365607 -3.911753643404015 1.846541744694081 -3.9890292817526483 2.037168653077938 -4.0414134278683935 C 2.209587522434804 -4.090990352222356 2.386419947252447 -4.122562388682889 2.562611499633319 -4.1553557103531205 C 2.620930891379456 -4.16709697707207 2.680132994217748 -4.176782615220247 2.736191194536032 -4.197242165465834 C 2.747990973788099 -4.200536527587017 2.7584853469690014 -4.207394822172846 2.766239647467641 -4.216879464283111 C 2.7686943098198022 -4.226988320078211 2.7565902851177744 -4.229684821085756 2.7500001817585273 -4.23383235402561 Z" fill="#4e888f" transform="matrix(1,0,0,1,0,0)" fill-rule="nonzero"></path></g><g clip-path="url(&quot;#SvgjsClipPath1000ec73176c-6acf-4d36-b96e-24b07e138024&quot;)"><path d=" M 3.3302436676241896 -4.018378295942954 C 3.405783122208628 -3.977470285489901 3.4780606317962968 -3.930806641372755 3.5464353336057712 -3.878801115987397 C 3.59053461241526 -3.841013826083463 3.6305347260159677 -3.7920656822335026 3.638648412904141 -3.7328152116641338 C 3.6437869275198587 -3.689861697429073 3.6320853982468786 -3.646587708617702 3.606000194427141 -3.6120772629630826 C 3.571647013429675 -3.5640843818018926 3.5224328470587913 -3.5290903283676567 3.47153790203298 -3.500408263838975 C 3.4218684099426215 -3.473425120843352 3.370070441869286 -3.450559278285058 3.316664427124311 -3.432040475961585 C 3.1907753150635565 -3.3873003247153264 3.0602549927521734 -3.357675089430642 2.9299402332978692 -3.3294646102799614 C 2.6677508550620272 -3.273261306768445 2.401522771281251 -3.227058031657106 2.1497324552269714 -3.132426565804886 C 1.971110424359476 -3.065594453389191 1.7992356919772297 -2.9724382033348205 1.6617625083235232 -2.8385925995118937 C 1.5218020996197943 -2.7049436895085592 1.4247176128061776 -2.5327152122510057 1.3828378951350258 -2.3437786186610454 C 1.3450443251419724 -2.1666805698778244 1.350640736166722 -1.983069335226662 1.3991499124407558 -1.8086017662264102 C 1.4381345191545007 -1.665142482239442 1.4995187915394976 -1.528735708622841 1.5810367651559505 -1.4044168214811577 C 1.909320647908562 -0.9001832250030573 2.5174481307401373 -0.5923105247649532 3.118453465170616 -0.6298801598790424 C 3.2645442319663527 -0.6382300866096737 3.408494630727942 -0.6689041630823285 3.5452986919254594 -0.720835678169407 C 3.6958429503698773 -0.7768471307412499 3.8313240691568833 -0.8670519746338972 3.941067651463306 -0.9843430770770984 C 3.8849827313803105 -0.9140921021373791 3.8230043111947536 -0.8487560624260739 3.7558071495054897 -0.7890462709207982 C 3.6437753923983043 -0.6949831259087298 3.5103409142895314 -0.6290941842490358 3.371162768115361 -0.5856236859435513 C 3.12233497558955 -0.5085738903378294 2.8552483645821565 -0.5026851190792034 2.5996249058400203 -0.546252352846841 C 2.3191848773530737 -0.5954174550493119 2.0530497286467417 -0.7058632527453979 1.8202031033991222 -0.8697115544245193 C 1.5606062044222233 -1.049644690458995 1.3508266635475896 -1.2924135378387938 1.2104432096436994 -1.5753604750401684 C 1.1108075184808717 -1.776263792287215 1.0561299741239796 -1.9964594361677745 1.0502130085182504 -2.220634375338911 C 1.047100631404494 -2.3701794484024887 1.069639740543209 -2.5191518763425544 1.1168516500096368 -2.661083026459166 C 1.1933540068695956 -2.8879870416332376 1.334629536744435 -3.087520651981042 1.5232373265188943 -3.2350507992175848 C 1.6599424007230246 -3.3409073612783775 1.81285758627818 -3.4239737614425634 1.9760681167948742 -3.4810369875426224 C 2.2737835935068 -3.5894411648190285 2.589963451557384 -3.6269261564037323 2.9006414801979563 -3.680130660588472 C 3.0255874215027094 -3.7030206893206783 3.1521536817985436 -3.7257656148596547 3.2698807392400497 -3.7753304472808478 C 3.310775655865683 -3.7939641156782766 3.3524081803902437 -3.8152338254194023 3.3819245882800044 -3.8500706837276386 C 3.4023160276791415 -3.871554880238263 3.4105001615318784 -3.9018725494216255 3.403690067264671 -3.9306996914330585 C 3.3934965679401836 -3.9692245892359166 3.3607032462699524 -3.9956333704039793 3.3302436676241896 -4.018378295942954 Z" fill="#4e888f" transform="matrix(1,0,0,1,0,0)" fill-rule="nonzero"></path></g><g clip-path="url(&quot;#SvgjsClipPath1000ec73176c-6acf-4d36-b96e-24b07e138024&quot;)"><path d=" M 1.1252676352170414 -3.869333132629068 C 1.1271490437359604 -3.8707798722263487 1.1291751644555683 -3.872027962589627 1.1313136016016707 -3.8730574479219997 C 1.1212047458065704 -3.863383901706593 1.1095481226170043 -3.8554274099444203 1.098798394385133 -3.8463826442330142 C 0.6469362640053753 -3.4778783593089915 0.38665736203280043 -2.9242714546588484 0.3911422129297878 -2.3412151289139604 C 0.391940280492559 -1.9200893863589776 0.5330410439770427 -1.503377199264773 0.7756656749922248 -1.1604378939958182 C 1.0344330362543668 -0.7935807457092703 1.4019431489104566 -0.5005932147101229 1.8249794168429818 -0.34665081862468705 C 1.9640051876585032 -0.2951574381262594 2.1094736327373207 -0.2631014825925275 2.2572660133439917 -0.25139057226846706 C 2.1254135856469123 -0.2552894555128651 1.994293994878906 -0.2725195379950618 1.8659106092669226 -0.3028175623361222 C 1.7485022740299907 -0.3339261191681313 1.6347744486099303 -0.3775540815681717 1.5266835273581314 -0.4329509427988909 C 1.0137558312189339 -0.695986756328578 0.6159917027741596 -1.1719735978576913 0.44203715795559917 -1.721092448775281 C 0.3624871949950313 -1.9727756297463706 0.3330927070141548 -2.2376218151640006 0.35551937899155145 -2.500623078611102 C 0.37932570892822387 -2.773258578824983 0.4613006888108777 -3.037622837925448 0.5959190943771902 -3.2758973481121445 C 0.7309173138132212 -3.507111499092099 0.9109162224997811 -3.7089025410001843 1.1252676352170434 -3.869333132629069 Z" fill="#4e888f" transform="matrix(1,0,0,1,0,0)" fill-rule="nonzero"></path></g><g clip-path="url(&quot;#SvgjsClipPath1000ec73176c-6acf-4d36-b96e-24b07e138024&quot;)"><path d=" M 3.72758457842204 -3.728921609312432 C 3.784380715311961 -3.677312136922878 3.8374065553128323 -3.6217000648231985 3.886254920220256 -3.5625124305418896 C 3.937562392770587 -3.4983402284958998 3.969900877557637 -3.4210981178311224 3.979616733131705 -3.3395130064112157 C 3.98724515303981 -3.255511463431623 3.9685405340178415 -3.1712181215852215 3.926097838694963 -3.098327315395575 C 3.881672077700707 -3.018435915589081 3.8177299372168654 -2.9512773209886176 3.748418978583473 -2.8925588954610943 C 3.60259026938621 -2.771929774154967 3.433025096162891 -2.6853031677959946 3.264185438905726 -2.6019897510158003 C 3.0942454157665606 -2.5185554149079143 2.920895467586463 -2.4411065855208105 2.7595407167134707 -2.341638346560885 C 2.67098842906422 -2.2886549268195884 2.5892313881062456 -2.225065214819894 2.51608174233721 -2.1522786793942905 C 2.4324055675739387 -2.0672361162280914 2.366407798519321 -1.9616614512196908 2.340881728443415 -1.8442366920974163 C 2.3244474386786385 -1.7688649584888685 2.3239408476603574 -1.6908911279351337 2.339394420712796 -1.615312220909805 C 2.3677741869222464 -1.4735826769213203 2.4467103240399704 -1.3461216136005603 2.546867803167742 -1.2437029430449358 C 2.714848933198289 -1.0742465972165411 2.9417903274117405 -0.9681398871662923 3.1769784197738287 -0.9339318093620586 C 3.4147541857485386 -0.8977769303819745 3.666000364828202 -0.9395182823014574 3.87409043585438 -1.0620337451195896 C 4.010082906991762 -1.1392290122934488 4.121372477593126 -1.2534369936984175 4.195022423483284 -1.3913817179558965 C 4.163373272573995 -1.3199021552433496 4.126270486770389 -1.2509640634685724 4.084042664527025 -1.1851779884417235 C 3.9727968830498415 -1.0241376278207315 3.8051543271368353 -0.9085629344121546 3.6232674744216413 -0.840557904517842 C 3.4813847262283177 -0.787633858681744 3.331399952257406 -0.7597111613999217 3.1799772191006044 -0.7580304633676467 C 2.8756942538333474 -0.7558760923326191 2.5779300156134615 -0.8461718241390153 2.3260932946666126 -1.01696711168856 C 2.1583192369153634 -1.128573434603695 2.017807216557224 -1.2764995303889664 1.9149675805118065 -1.4497857532314176 C 1.8571932547657084 -1.548198901965327 1.8162439830147115 -1.6555620075711577 1.793806414163833 -1.7674529190126185 C 1.7588540737128204 -1.936370661831527 1.7809701506584574 -2.112112664806655 1.8566844645639784 -2.2671036729711727 C 1.9291030499190718 -2.413198404689359 2.049828906687352 -2.5303934170890177 2.1858147826104406 -2.6179269184056837 C 2.2749202453953146 -2.674374940057936 2.369009813811388 -2.7225408982507986 2.4669038517646342 -2.761820918359864 C 2.739576935711425 -2.87402196252582 3.0285620369639457 -2.9392821236815108 3.30443948309459 -3.0430188149089843 C 3.3895283719647282 -3.074278931674575 3.4721405866573694 -3.1119067380437793 3.55157440503271 -3.155582617058018 C 3.635468234585825 -3.2035271304881276 3.716520459938168 -3.2616288674444167 3.7731469810966076 -3.3411454173350643 C 3.8117202466305438 -3.3964055500905785 3.8360250314967552 -3.464483131581506 3.8276695059531964 -3.5325002534085894 C 3.8205231736865657 -3.6078813622921495 3.778576258910006 -3.674979497228767 3.72758457842204 -3.728921609312432 Z" fill="#4e888f" transform="matrix(1,0,0,1,0,0)" fill-rule="nonzero"></path></g><g clip-path="url(&quot;#SvgjsClipPath1000ec73176c-6acf-4d36-b96e-24b07e138024&quot;)"><path d=" M 4.020934867404264 -3.3868408312700944 C 4.062170638637662 -3.3277319300474675 4.099493559630895 -3.265987539322082 4.132664326192221 -3.2020035469591974 C 4.193559647031838 -3.0763272779610356 4.215514459244741 -2.9353221386105552 4.1957116636511325 -2.797080994315026 C 4.174768436094778 -2.647624705286985 4.111297880988937 -2.507890330205426 4.033982062862295 -2.3795828315908194 C 3.942083373815926 -2.225434872648305 3.8278387930119675 -2.0860753474825957 3.7348518300163662 -1.932713364170083 C 3.685794858771482 -1.8489888216757349 3.640220364164145 -1.7586741758221378 3.634791086350748 -1.6599919124922162 C 3.6289242862385844 -1.58688349525407 3.6592676908001525 -1.515543060765217 3.7160005068290913 -1.469060294065617 C 3.7747793920204606 -1.4223854335762773 3.8533648630878745 -1.4073914369423948 3.926787078862815 -1.4145377692090269 C 3.9879493965984527 -1.4214791505409998 4.046794021763811 -1.4419725296526416 4.099036661160909 -1.4745258476773215 C 4.213450529023638 -1.5455780446294876 4.293027538578132 -1.6647319501377655 4.32733235184452 -1.7937528727857588 C 4.313659171633465 -1.7240876305831465 4.295051159828542 -1.655482456984028 4.271649001442082 -1.5884560382292765 C 4.208538567913717 -1.4301591467066865 4.09092822750297 -1.2996315679165211 3.9400398371779235 -1.2204259724641124 C 3.810299502288725 -1.1515650600580432 3.663375088952927 -1.1218021557442222 3.5170640289092434 -1.1347425368611455 C 3.3837141943298548 -1.1462298729919391 3.2515614610946235 -1.1926387109603551 3.1467244039851483 -1.2773185161434752 C 3.0929575452678613 -1.320171640299551 3.0492942020954152 -1.3743462232334442 3.018840123017465 -1.4359888579416915 C 2.9865297836575335 -1.5018638135433342 2.974498136082094 -1.5758464523597837 2.9842692872301546 -1.6485650360252668 C 2.9955147847055623 -1.7392545317947086 3.038356502507048 -1.8228218791630568 3.0921414194647125 -1.8954460273752272 C 3.141515734645831 -1.9603350998788875 3.197245771436616 -2.020132076409311 3.258502230504177 -2.073947138915027 C 3.4011870371814346 -2.2022667294624054 3.5583821631818013 -2.3131013852254343 3.7034853564129095 -2.4384584522443418 C 3.819640462594412 -2.539087516750116 3.9308136924749784 -2.649184564614218 4.0100521279119326 -2.7821232734794528 C 4.078359456125478 -2.8964283139472577 4.118565132583264 -3.0317370416352665 4.100088659311835 -3.1654375422649634 C 4.089431594878217 -3.2439507451827168 4.062469665496102 -3.3193667132527613 4.020934867404264 -3.3868408312700944 Z" fill="#4e888f" transform="matrix(1,0,0,1,0,0)" fill-rule="nonzero"></path></g><g clip-path="url(&quot;#SvgjsClipPath1000ec73176c-6acf-4d36-b96e-24b07e138024&quot;)"><path d=" M 4.232495323135221 -2.9857030535826956 C 4.270645525278699 -2.890854663610681 4.300302462510201 -2.7928075099581644 4.321117098401119 -2.6927155225835495 C 4.336497491720701 -2.6080310090410004 4.345908039509254 -2.52237037653035 4.349279209820724 -2.4363665478752585 C 4.352435204273499 -2.387889989403299 4.352797962256577 -2.339159500343186 4.359013215699976 -2.290948964392151 C 4.359913226618119 -2.2803261344800703 4.362620412028251 -2.269934959061425 4.367018075193226 -2.260223363225462 C 4.37154045804893 -2.2601145358305397 4.370174069646001 -2.2665232601982463 4.371600917712776 -2.2694736917939453 C 4.374274435200869 -2.1796600700726985 4.370281199767307 -2.089771855454867 4.359654088136747 -2.0005491070056207 C 4.351959470455828 -1.9490045308510813 4.333194037860158 -1.899737535579566 4.304647885969388 -1.8561351539423656 C 4.287431428090736 -1.828912032254248 4.261882699727975 -1.8079776824536857 4.2318060829673705 -1.7964493737932998 C 4.204881275123995 -1.7864654598007967 4.174608562374791 -1.7958450380132551 4.158045293074892 -1.819303126727203 C 4.133994438796835 -1.8547566736066692 4.133148003502987 -1.9001256053569278 4.136279814090225 -1.9413470041673326 C 4.143692168877781 -2.029170711870461 4.170270237104614 -2.1137416896586574 4.193583483483744 -2.1983731271107008 C 4.239847218258928 -2.359679510252617 4.283789301942417 -2.524927863477309 4.28079050261564 -2.6941423706503214 C 4.280645893074756 -2.793308210841431 4.264333497187962 -2.8917870515079924 4.232495323135204 -2.9857030535827445 Z" fill="#4e888f" transform="matrix(1,0,0,1,0,0)" fill-rule="nonzero"></path></g><g clip-path="url(&quot;#SvgjsClipPath1000ec73176c-6acf-4d36-b96e-24b07e138024&quot;)"><path d=" M 0.32310090723716844 -2.045228798588039 C 0.30447012976530863 -2.239167738788899 0.313725848537996 -2.4347757294107737 0.3505858704216942 -2.6260889730249346 C 0.2949844117861128 -2.2978271342053853 0.32270863204797134 -1.9608581133412075 0.4312148781271131 -1.646098281740338 C 0.5529384716490943 -1.2877893076842248 0.7661331971463592 -0.9674845317235365 1.0496930554091741 -0.7168937080866318 C 1.1799912545779097 -0.6013193780403032 1.3254681967823034 -0.5040879420749502 1.4820884793051028 -0.42789651490134206 C 1.3506990759582589 -0.48421637496688996 1.2261549709608492 -0.5553241623413094 1.1108661432888538 -0.639843912480913 C 0.8215061921204868 -0.8593487680412712 0.5981681938722734 -1.1616470872727462 0.46121496332764556 -1.4971619458213756 C 0.38973274237764394 -1.6724797910012974 0.34324019272663087 -1.856972420394765 0.3231009072371691 -2.045228798588039 Z" fill="#4e888f" transform="matrix(1,0,0,1,0,0)" fill-rule="nonzero"></path></g><g clip-path="url(&quot;#SvgjsClipPath1000ec73176c-6acf-4d36-b96e-24b07e138024&quot;)"><path d=" M 2.2646783681315483 -0.25112454974753984 C 2.2681263312372595 -0.25110738453809134 2.2715688601626116 -0.25084879081600064 2.2749806948509548 -0.2503506660503083 C 2.2720423551880264 -0.2514510319323122 2.266733996702321 -0.24850060033661325 2.2646783681315483 -0.25112454974753984 Z" fill="#4e888f" transform="matrix(1,0,0,1,0,0)" fill-rule="nonzero"></path></g></g></g><defs><clipPath id="SvgjsClipPath1002"><path d=" M 0.3138989463997617 -4.275198856029245 h 4.0581493728254765 v 4.025198856029245 h -4.0581493728254765 Z"></path></clipPath><clipPath id="SvgjsClipPath1000ec73176c-6acf-4d36-b96e-24b07e138024"><path d=" M 0.3138989463997617 -4.275198856029245 L 4.372048319225238 -4.275198856029245 L 4.372048319225238 -0.25 L 0.3138989463997617 -0.25 Z"></path></clipPath></defs></svg>